<mxfile host="app.diagrams.net" modified="2021-06-07T05:16:39.814Z" agent="5.0 (Windows NT 10.0; WOW64) AppleWebKit/537.36 (KHTML, like Gecko) Chrome/91.0.4472.77 Safari/537.36" etag="IJEpGTtYNdzPNqjB1LxT" version="14.7.4" type="github">
  <diagram id="hdaMLQeRpg_BN8uSPiEy" name="Page-1">
    <mxGraphModel dx="920" dy="615" grid="1" gridSize="10" guides="1" tooltips="1" connect="1" arrows="1" fold="1" page="1" pageScale="1" pageWidth="850" pageHeight="1100" math="0" shadow="0">
      <root>
        <mxCell id="0" />
        <mxCell id="1" parent="0" />
        <mxCell id="NeQQzvrU6vEBzfEt9V7G-8" style="edgeStyle=orthogonalEdgeStyle;rounded=0;orthogonalLoop=1;jettySize=auto;html=1;exitX=0.5;exitY=0;exitDx=0;exitDy=0;entryX=0;entryY=0.5;entryDx=0;entryDy=0;endArrow=none;endFill=0;strokeColor=#FF0000;strokeWidth=3;" edge="1" parent="1" source="NeQQzvrU6vEBzfEt9V7G-1" target="NeQQzvrU6vEBzfEt9V7G-2">
          <mxGeometry relative="1" as="geometry" />
        </mxCell>
        <mxCell id="NeQQzvrU6vEBzfEt9V7G-1" value="BATTERY" style="rounded=1;whiteSpace=wrap;html=1;fillColor=#fff2cc;strokeColor=#d6b656;" vertex="1" parent="1">
          <mxGeometry x="50" y="200" width="150" height="270" as="geometry" />
        </mxCell>
        <mxCell id="NeQQzvrU6vEBzfEt9V7G-2" value="CURRENT &lt;br&gt;SENSOR" style="rounded=1;whiteSpace=wrap;html=1;fillColor=#f5f5f5;strokeColor=#666666;fontColor=#333333;" vertex="1" parent="1">
          <mxGeometry x="160" y="100" width="90" height="40" as="geometry" />
        </mxCell>
        <mxCell id="NeQQzvrU6vEBzfEt9V7G-7" style="edgeStyle=orthogonalEdgeStyle;rounded=0;orthogonalLoop=1;jettySize=auto;html=1;exitX=0;exitY=0.5;exitDx=0;exitDy=0;entryX=1;entryY=0.5;entryDx=0;entryDy=0;endArrow=none;endFill=0;strokeColor=#FF0000;strokeWidth=3;" edge="1" parent="1" source="NeQQzvrU6vEBzfEt9V7G-3" target="NeQQzvrU6vEBzfEt9V7G-2">
          <mxGeometry relative="1" as="geometry">
            <mxPoint x="390" y="200" as="targetPoint" />
            <Array as="points">
              <mxPoint x="300" y="65" />
              <mxPoint x="300" y="120" />
            </Array>
          </mxGeometry>
        </mxCell>
        <mxCell id="NeQQzvrU6vEBzfEt9V7G-16" style="edgeStyle=orthogonalEdgeStyle;rounded=0;orthogonalLoop=1;jettySize=auto;html=1;exitX=1;exitY=0.5;exitDx=0;exitDy=0;entryX=0;entryY=0.5;entryDx=0;entryDy=0;endArrow=none;endFill=0;strokeColor=#FF0000;" edge="1" parent="1" source="NeQQzvrU6vEBzfEt9V7G-3" target="NeQQzvrU6vEBzfEt9V7G-12">
          <mxGeometry relative="1" as="geometry" />
        </mxCell>
        <mxCell id="NeQQzvrU6vEBzfEt9V7G-3" value="DC/DC&lt;br&gt;48/12" style="rounded=1;whiteSpace=wrap;html=1;fillColor=#dae8fc;strokeColor=#6c8ebf;" vertex="1" parent="1">
          <mxGeometry x="400" y="40" width="80" height="50" as="geometry" />
        </mxCell>
        <mxCell id="NeQQzvrU6vEBzfEt9V7G-6" style="edgeStyle=orthogonalEdgeStyle;rounded=0;orthogonalLoop=1;jettySize=auto;html=1;exitX=0;exitY=0.5;exitDx=0;exitDy=0;endArrow=none;endFill=0;strokeColor=#FF0000;entryX=1;entryY=0.5;entryDx=0;entryDy=0;strokeWidth=3;" edge="1" parent="1" source="NeQQzvrU6vEBzfEt9V7G-4" target="NeQQzvrU6vEBzfEt9V7G-2">
          <mxGeometry relative="1" as="geometry">
            <mxPoint x="390" y="200" as="targetPoint" />
            <Array as="points">
              <mxPoint x="300" y="315" />
              <mxPoint x="300" y="120" />
            </Array>
          </mxGeometry>
        </mxCell>
        <mxCell id="NeQQzvrU6vEBzfEt9V7G-4" value="CONTACTOR&lt;br&gt;UNIT" style="rounded=1;whiteSpace=wrap;html=1;fillColor=#d5e8d4;strokeColor=#82b366;" vertex="1" parent="1">
          <mxGeometry x="400" y="290" width="80" height="50" as="geometry" />
        </mxCell>
        <mxCell id="NeQQzvrU6vEBzfEt9V7G-10" value="~800 mA" style="text;html=1;strokeColor=none;fillColor=none;align=center;verticalAlign=middle;whiteSpace=wrap;rounded=0;" vertex="1" parent="1">
          <mxGeometry x="320" y="50" width="70" height="20" as="geometry" />
        </mxCell>
        <mxCell id="NeQQzvrU6vEBzfEt9V7G-12" value="INVERTER" style="rounded=1;whiteSpace=wrap;html=1;fillColor=#e1d5e7;strokeColor=#9673a6;" vertex="1" parent="1">
          <mxGeometry x="630" y="10" width="120" height="30" as="geometry" />
        </mxCell>
        <mxCell id="NeQQzvrU6vEBzfEt9V7G-17" style="edgeStyle=orthogonalEdgeStyle;rounded=0;orthogonalLoop=1;jettySize=auto;html=1;exitX=0;exitY=0.5;exitDx=0;exitDy=0;entryX=1;entryY=0.5;entryDx=0;entryDy=0;endArrow=none;endFill=0;strokeColor=#FF0000;strokeWidth=1;" edge="1" parent="1" source="NeQQzvrU6vEBzfEt9V7G-13" target="NeQQzvrU6vEBzfEt9V7G-3">
          <mxGeometry relative="1" as="geometry" />
        </mxCell>
        <mxCell id="NeQQzvrU6vEBzfEt9V7G-13" value="HMI" style="rounded=1;whiteSpace=wrap;html=1;fillColor=#e1d5e7;strokeColor=#9673a6;" vertex="1" parent="1">
          <mxGeometry x="630" y="70" width="120" height="30" as="geometry" />
        </mxCell>
        <mxCell id="NeQQzvrU6vEBzfEt9V7G-18" style="edgeStyle=orthogonalEdgeStyle;rounded=0;orthogonalLoop=1;jettySize=auto;html=1;exitX=0;exitY=0.5;exitDx=0;exitDy=0;entryX=1;entryY=0.5;entryDx=0;entryDy=0;endArrow=none;endFill=0;strokeColor=#FF0000;strokeWidth=1;" edge="1" parent="1" source="NeQQzvrU6vEBzfEt9V7G-14" target="NeQQzvrU6vEBzfEt9V7G-3">
          <mxGeometry relative="1" as="geometry" />
        </mxCell>
        <mxCell id="NeQQzvrU6vEBzfEt9V7G-14" value="&amp;nbsp;BMS" style="rounded=1;whiteSpace=wrap;html=1;fillColor=#e1d5e7;strokeColor=#9673a6;" vertex="1" parent="1">
          <mxGeometry x="630" y="130" width="120" height="30" as="geometry" />
        </mxCell>
        <mxCell id="NeQQzvrU6vEBzfEt9V7G-19" style="edgeStyle=orthogonalEdgeStyle;rounded=0;orthogonalLoop=1;jettySize=auto;html=1;exitX=0;exitY=0.5;exitDx=0;exitDy=0;entryX=1;entryY=0.5;entryDx=0;entryDy=0;endArrow=none;endFill=0;strokeColor=#FF0000;strokeWidth=1;" edge="1" parent="1" source="NeQQzvrU6vEBzfEt9V7G-15" target="NeQQzvrU6vEBzfEt9V7G-3">
          <mxGeometry relative="1" as="geometry" />
        </mxCell>
        <mxCell id="NeQQzvrU6vEBzfEt9V7G-15" value="ILLUMINATION" style="rounded=1;whiteSpace=wrap;html=1;fillColor=#e1d5e7;strokeColor=#9673a6;" vertex="1" parent="1">
          <mxGeometry x="630" y="200" width="120" height="30" as="geometry" />
        </mxCell>
        <mxCell id="NeQQzvrU6vEBzfEt9V7G-22" style="edgeStyle=orthogonalEdgeStyle;rounded=0;orthogonalLoop=1;jettySize=auto;html=1;exitX=0;exitY=0.5;exitDx=0;exitDy=0;endArrow=none;endFill=0;strokeColor=#FF0000;strokeWidth=3;" edge="1" parent="1" source="NeQQzvrU6vEBzfEt9V7G-20" target="NeQQzvrU6vEBzfEt9V7G-4">
          <mxGeometry relative="1" as="geometry" />
        </mxCell>
        <mxCell id="NeQQzvrU6vEBzfEt9V7G-20" value="INVERTER" style="rounded=1;whiteSpace=wrap;html=1;fillColor=#f8cecc;strokeColor=#b85450;" vertex="1" parent="1">
          <mxGeometry x="630" y="285" width="120" height="60" as="geometry" />
        </mxCell>
        <mxCell id="NeQQzvrU6vEBzfEt9V7G-23" style="edgeStyle=orthogonalEdgeStyle;rounded=0;orthogonalLoop=1;jettySize=auto;html=1;exitX=0;exitY=0.5;exitDx=0;exitDy=0;entryX=1;entryY=0.5;entryDx=0;entryDy=0;endArrow=none;endFill=0;strokeColor=#FF0000;strokeWidth=3;" edge="1" parent="1" source="NeQQzvrU6vEBzfEt9V7G-21" target="NeQQzvrU6vEBzfEt9V7G-4">
          <mxGeometry relative="1" as="geometry" />
        </mxCell>
        <mxCell id="NeQQzvrU6vEBzfEt9V7G-21" value="CHARGER" style="rounded=1;whiteSpace=wrap;html=1;fillColor=#f8cecc;strokeColor=#b85450;" vertex="1" parent="1">
          <mxGeometry x="630" y="380" width="120" height="60" as="geometry" />
        </mxCell>
      </root>
    </mxGraphModel>
  </diagram>
</mxfile>
